<svg width="104" height="18" viewBox="0 0 104 18" fill="none" xmlns="http://www.w3.org/2000/svg">
<path d="M8.5 0L10.5066 6.49342H17L11.7467 10.5066L13.7533 17L8.5 12.9868L3.24671 17L5.25329 10.5066L0 6.49342H6.49342L8.5 0Z" fill="#FC5914"/>
<path d="M28.5 0L30.5066 6.49342H37L31.7467 10.5066L33.7533 17L28.5 12.9868L23.2467 17L25.2533 10.5066L20 6.49342H26.4934L28.5 0Z" fill="#FC5914"/>
<path d="M51.5 0.5L53.5066 6.99342H60L54.7467 11.0066L56.7533 17.5L51.5 13.4868L46.2467 17.5L48.2533 11.0066L43 6.99342H49.4934L51.5 0.5Z" fill="#FC5914"/>
<path d="M74.5 0L76.5066 6.49342H83L77.7467 10.5066L79.7533 17L74.5 12.9868L69.2467 17L71.2533 10.5066L66 6.49342H72.4934L74.5 0Z" fill="#FC5914"/>
<path d="M95.5 0L97.5066 6.49342H104L98.7467 10.5066L100.753 17L95.5 12.9868L90.2467 17L92.2533 10.5066L87 6.49342H93.4934L95.5 0Z" fill="#FC5914"/>
</svg>
