<svg width="16" height="14" viewBox="0 0 16 14" fill="none" xmlns="http://www.w3.org/2000/svg">
<path d="M15.1877 0.370212L15.196 0.870142C15.2178 0.869777 15.2744 0.872912 15.3364 0.887731C15.4016 0.903317 15.4347 0.922711 15.4435 0.929866C15.4469 0.932613 15.4502 0.935732 15.4553 0.947034C15.4619 0.961858 15.4685 0.984345 15.4754 1.02494C15.4815 1.0603 15.4908 1.13536 15.4961 1.22617C15.5014 1.31751 15.5015 1.40605 15.4951 1.47321C15.2758 3.77738 14.3206 9.40991 13.8322 12.0209C13.6346 13.0773 13.3064 13.1222 13.271 13.1254C12.9908 13.1512 12.7223 13.0646 12.3931 12.8711C12.227 12.7735 12.0568 12.6557 11.8665 12.5205C11.8358 12.4988 11.8047 12.4766 11.7729 12.4539C11.6125 12.3395 11.4385 12.2154 11.257 12.0965C10.6126 11.6741 10.1083 11.3314 9.60614 10.9894L9.53929 10.9439C9.05922 10.617 8.57503 10.2872 7.97015 9.88862C7.63261 9.66618 7.50246 9.51068 7.45759 9.42476C7.4316 9.37497 7.43102 9.3524 7.45524 9.29717C7.49447 9.20773 7.5869 9.08658 7.76511 8.90524C7.84071 8.82832 7.92247 8.74949 8.01304 8.66217C8.02462 8.651 8.03635 8.6397 8.04822 8.62825C8.15074 8.52933 8.26196 8.42135 8.37255 8.3065C8.3724 8.30665 8.37379 8.30521 8.3774 8.30163L8.39119 8.28811C8.40289 8.27675 8.4182 8.26208 8.43727 8.24396C8.47538 8.20776 8.5259 8.16029 8.58758 8.10261C8.69864 7.99877 8.8432 7.86437 9.01169 7.70772L9.06838 7.65501C9.45341 7.29704 9.94854 6.83639 10.4394 6.37278C10.9296 5.90986 11.419 5.44075 11.7917 5.06638C11.9774 4.87988 12.1391 4.71191 12.2587 4.57765C12.318 4.51117 12.3729 4.44631 12.4168 4.38772C12.4386 4.35862 12.4626 4.32454 12.4843 4.28804C12.5011 4.25987 12.5387 4.19425 12.5587 4.10872C12.5785 4.02419 12.5842 3.91444 12.568 3.80513C12.5518 3.69613 12.5019 3.50816 12.3355 3.36034C12.1711 3.21419 11.9831 3.18375 11.8569 3.18277C11.7415 3.18187 11.6375 3.20556 11.5921 3.2159L11.5877 3.21689C11.5083 3.23491 11.4371 3.2732 11.4201 3.28233C11.419 3.28288 11.4182 3.28333 11.4176 3.28366C11.3839 3.30145 11.3452 3.32364 11.3038 3.34813C11.2201 3.39768 11.1077 3.46744 10.9687 3.55579C10.6896 3.73309 10.2901 3.99363 9.77149 4.33639C8.73366 5.02236 7.21094 6.04295 5.20415 7.3976L5.20414 7.39758L5.20086 7.39984C4.65878 7.77207 4.22921 7.90948 3.89696 7.9023C3.69464 7.89793 3.35732 7.83642 2.94751 7.73365C2.5493 7.6338 2.11982 7.50475 1.75055 7.38472C1.62153 7.34278 1.50231 7.30525 1.39215 7.27056C1.07524 7.17079 0.833198 7.09459 0.647958 7.00486C0.597976 6.98065 0.56219 6.95986 0.536998 6.94327C0.552899 6.92886 0.573762 6.91151 0.600939 6.89133C0.73355 6.79284 0.953843 6.67459 1.28468 6.54302L1.2922 6.54003L1.29963 6.5368C5.59524 4.66527 8.45538 3.43331 9.88387 2.83915C11.9314 1.9875 13.1562 1.49266 13.9368 1.20939C14.726 0.922991 15.0093 0.873467 15.1966 0.870133L15.1877 0.370212ZM15.1877 0.370212C15.3095 0.368169 15.582 0.398373 15.7586 0.541606C15.9076 0.662549 15.9486 0.825926 15.9683 0.940593C15.9879 1.05526 16.0123 1.31648 15.9929 1.52058C15.7712 3.85021 14.8118 9.50361 14.3237 12.1128C14.1172 13.2169 13.7105 13.5871 13.3168 13.6233C12.6393 13.6857 12.0909 13.2947 11.4805 12.8595C11.3201 12.7452 11.1554 12.6277 10.9829 12.5147C10.306 12.071 9.78287 11.7147 9.25834 11.3575C8.77807 11.0304 8.29665 10.7026 7.69503 10.3061C6.44309 9.48112 6.96716 8.97591 7.66601 8.30221C7.77914 8.19315 7.89686 8.07967 8.01236 7.95971C8.06392 7.90616 8.31614 7.67167 8.67171 7.3411C9.81228 6.28072 12.0163 4.23166 12.0719 3.99453C12.0811 3.95563 12.0895 3.81062 12.0034 3.73405C11.9172 3.65749 11.7901 3.68367 11.6983 3.70449C11.5683 3.73401 9.4968 5.10319 5.48389 7.81201L1.09992 6.07841C5.39487 4.20717 8.25885 2.97353 9.69185 2.37749C13.7834 0.675697 14.6335 0.380077 15.1877 0.370212Z" fill="white" stroke="white"/>
</svg>
