<svg width="16" height="16" viewBox="0 0 16 16" fill="none" xmlns="http://www.w3.org/2000/svg">
<path d="M1.58211 12.1326L1.63788 11.9298L1.5319 11.7481C0.874066 10.6204 0.5 9.30676 0.5 8C0.5 3.87614 3.87614 0.5 8 0.5C9.97132 0.5 11.843 1.25006 13.2465 2.65355C14.6615 4.06861 15.5 5.94459 15.5 7.9C15.5 12.0239 12.1239 15.4 8 15.4C6.80045 15.4 5.57799 15.03 4.42362 14.4528L4.25534 14.3686L4.07333 14.4163L0.71198 15.2967L1.58211 12.1326ZM1.41999 14.16L1.16793 15.0242L2.03481 14.7815L4.34899 14.1335L4.3596 14.1388C5.44246 14.7839 6.72666 15.1 8 15.1C11.9761 15.1 15.1 11.8761 15.1 8.1C15.1 6.17836 14.4548 4.4477 13.0536 3.04645L13.0465 3.03938L13.0392 3.0326C11.6569 1.75663 9.93876 1 8 1C4.12386 1 0.899994 4.22386 0.899994 8.1C0.899994 9.38549 1.22219 10.6805 1.97816 11.8684L1.97807 11.8685L1.98398 11.8774L2.05479 11.9836L1.41999 14.16ZM10.0738 9.58697C10.094 9.56074 10.1162 9.53139 10.1385 9.5H10.1636C10.1649 9.50036 10.1662 9.50073 10.1675 9.50114C10.1961 9.50959 10.2383 9.52419 10.2943 9.54591C10.4056 9.58904 10.5452 9.64989 10.6917 9.71703C10.9832 9.85065 11.2765 9.99727 11.3764 10.0472C11.4155 10.0668 11.452 10.0826 11.4792 10.0941C11.4886 10.0981 11.4965 10.1014 11.5034 10.1044C11.5195 10.1112 11.5304 10.1158 11.5426 10.1213C11.5495 10.1244 11.5547 10.1269 11.5584 10.1288C11.5687 10.1477 11.5893 10.196 11.6097 10.2981L11.6527 10.5131C11.6355 10.6162 11.5995 10.755 11.5358 10.9143L11.5232 10.9458L11.5159 10.9748C11.5159 10.9746 11.516 10.9745 11.5159 10.9745C11.5153 10.9743 11.5016 11.0075 11.4437 11.07C11.381 11.1379 11.2914 11.2132 11.1852 11.284C11.0796 11.3543 10.9695 11.4124 10.8721 11.4514C10.8238 11.4707 10.7827 11.4837 10.7502 11.4915C10.7341 11.4953 10.7216 11.4976 10.7126 11.4988C10.7033 11.5 10.6993 11.5 10.7 11.5C10.6088 11.5 10.5036 11.5093 10.4268 11.516C10.4008 11.5183 10.378 11.5203 10.3602 11.5215C10.2713 11.5278 10.1743 11.5302 10.0427 11.5156C9.77112 11.4854 9.32005 11.3793 8.49036 11.0377L8.49037 11.0376L8.48568 11.0358C7.58404 10.6751 6.81884 10.0103 6.25517 9.39866C5.97616 9.0959 5.75277 8.81305 5.59252 8.59889C5.51239 8.4918 5.44826 8.40218 5.39948 8.33397L5.39668 8.33006C5.37408 8.29845 5.3527 8.26855 5.33541 8.24505C5.33488 8.24433 5.33424 8.24345 5.3335 8.24244C5.32974 8.2373 5.32339 8.22863 5.31521 8.21799C5.28446 8.16506 5.24401 8.10122 5.20649 8.042C5.18907 8.01451 5.17228 7.98801 5.15739 7.96406C5.08178 7.84249 4.99378 7.69454 4.90972 7.5264C4.73828 7.18352 4.60001 6.78932 4.60001 6.4C4.60001 5.60686 4.97895 5.22807 5.14887 5.05822L5.15354 5.05355C5.19067 5.01642 5.21518 5.00852 5.22485 5.00576C5.24011 5.0014 5.25458 5 5.29999 5H5.30116H5.30233H5.30349H5.30466H5.30582H5.30698H5.30814H5.30929H5.31044H5.31159H5.31274H5.31389H5.31503H5.31617H5.31731H5.31845H5.31958H5.32071H5.32185H5.32297H5.3241H5.32522H5.32634H5.32746H5.32858H5.3297H5.33081H5.33192H5.33303H5.33413H5.33524H5.33634H5.33744H5.33854H5.33963H5.34073H5.34182H5.34291H5.34399H5.34508H5.34616H5.34724H5.34832H5.3494H5.35047H5.35155H5.35262H5.35368H5.35475H5.35581H5.35688H5.35794H5.35899H5.36005H5.3611H5.36216H5.36321H5.36425H5.3653H5.36634H5.36738H5.36842H5.36946H5.3705H5.37153H5.37256H5.37359H5.37462H5.37564H5.37667H5.37769H5.37871H5.37973H5.38074H5.38176H5.38277H5.38378H5.38479H5.38579H5.3868H5.3878H5.3888H5.3898H5.39079H5.39179H5.39278H5.39377H5.39476H5.39575H5.39673H5.39772H5.3987H5.39968H5.40065H5.40163H5.4026H5.40357H5.40454H5.40551H5.40648H5.40744H5.40841H5.40937H5.41033H5.41128H5.41224H5.41319H5.41414H5.41509H5.41604H5.41699H5.41793H5.41887H5.41982H5.42075H5.42169H5.42263H5.42356H5.42449H5.42542H5.42635H5.42728H5.4282H5.42913H5.43005H5.43097H5.43189H5.4328H5.43372H5.43463H5.43554H5.43645H5.43736H5.43827H5.43917H5.44007H5.44098H5.44187H5.44277H5.44367H5.44456H5.44546H5.44635H5.44724H5.44812H5.44901H5.4499H5.45078H5.45166H5.45254H5.45342H5.45429H5.45517H5.45604H5.45691H5.45778H5.45865H5.45952H5.46038H5.46125H5.46211H5.46297H5.46383H5.46469H5.46554H5.4664H5.46725H5.4681H5.46895H5.4698H5.47065H5.47149H5.47234H5.47318H5.47402H5.47486H5.47569H5.47653H5.47737H5.4782H5.47903H5.47986H5.48069H5.48152H5.48234H5.48317H5.48399H5.48481H5.48563H5.48645H5.48727H5.48808H5.4889H5.48971H5.49052H5.49133H5.49214H5.49295H5.49375H5.49455H5.49536H5.49616H5.49696H5.49776H5.49856H5.49935H5.50015H5.50094H5.50173H5.50252H5.50331H5.5041H5.50489H5.50567H5.50645H5.50724H5.50802H5.5088H5.50958H5.51035H5.51113H5.5119H5.51268H5.51345H5.51422H5.51499H5.51576H5.51653H5.51729H5.51806H5.51882H5.51958H5.52034H5.5211H5.52186H5.52262H5.52337H5.52413H5.52488H5.52563H5.52638H5.52713H5.52788H5.52863H5.52937H5.53012H5.53086H5.5316H5.53234H5.53308H5.53382H5.53456H5.5353H5.53603H5.53677H5.5375H5.53823H5.53896H5.53969H5.54042H5.54115H5.54187H5.5426H5.54332H5.54405H5.54477H5.54549H5.54621H5.54693H5.54764H5.54836H5.54908H5.54979H5.5505H5.55122H5.55193H5.55264H5.55335H5.55405H5.55476H5.55547H5.55617H5.55687H5.55758H5.55828H5.55898H5.55968H5.56038H5.56108H5.56177H5.56247H5.56316H5.56386H5.56455H5.56524H5.56593H5.56662H5.56731H5.568H5.56869H5.56937H5.57006H5.57074H5.57142H5.57211H5.57279H5.57347H5.57415H5.57483H5.5755H5.57618H5.57686H5.57753H5.57821H5.57888H5.57955H5.58022H5.58089H5.58156H5.58223H5.5829H5.58357H5.58423H5.5849H5.58556H5.58623H5.58689H5.58755H5.58821H5.58887H5.58953H5.59019H5.59085H5.59151H5.59216H5.59282H5.59347H5.59413H5.59478H5.59543H5.59609H5.59674H5.59739H5.59804H5.59868H5.59933H5.59998H5.60063H5.60127H5.60192H5.60256H5.6032H5.60385H5.60449H5.60513H5.60577H5.60641H5.60705H5.60769H5.60833H5.60897H5.6096H5.61024H5.61087H5.61151H5.61214H5.61278H5.61341H5.61404H5.61467H5.6153H5.61593H5.61656H5.61719H5.61782H5.61845H5.61907H5.6197H5.62033H5.62095H5.62158H5.6222H5.62282H5.62345H5.62407H5.62469H5.62531H5.62593H5.62655H5.62717H5.62779H5.62841H5.62903H5.62964H5.63026H5.63088H5.63149H5.63211H5.63272H5.63334H5.63395H5.63456H5.63518H5.63579H5.6364H5.63701H5.63762H5.63823H5.63884H5.63945H5.64006H5.64067H5.64099L5.65279 5.02361C5.74323 5.20448 5.88704 5.53888 6.01077 5.8482C6.07193 6.0011 6.12566 6.14156 6.16337 6.24745C6.18231 6.30063 6.19554 6.34041 6.20343 6.36661C6.20532 6.38532 6.20788 6.403 6.21079 6.41943C6.18553 6.46063 6.16804 6.49577 6.15624 6.51947C6.15504 6.52189 6.15389 6.52419 6.1528 6.52637C6.14557 6.54083 6.14091 6.54968 6.13824 6.55465L5.99644 6.69646L5.84646 6.84645C5.8441 6.84881 5.84126 6.85159 5.838 6.85479C5.79454 6.89749 5.67587 7.01406 5.61077 7.1768C5.52279 7.39675 5.55195 7.62193 5.65279 7.82361C5.76648 8.05099 6.20203 8.81732 6.87521 9.38018C7.613 10.0247 8.21738 10.2888 8.47691 10.4023C8.51981 10.421 8.55328 10.4357 8.57638 10.4472L8.68195 10.5H8.79999C8.81089 10.5 8.82256 10.5001 8.83493 10.5002C9.00356 10.5018 9.30261 10.5045 9.55357 10.2536L9.61094 10.1962L9.64723 10.1236C9.64611 10.1258 9.65004 10.1179 9.66397 10.0974C9.67707 10.0781 9.69474 10.054 9.71753 10.0245C9.76393 9.96442 9.82013 9.89687 9.88412 9.82008L9.88731 9.81625C9.94752 9.744 10.015 9.66307 10.0738 9.58697ZM10.1452 9.49524C10.1452 9.49521 10.1462 9.4954 10.1484 9.49591C10.1463 9.49553 10.1452 9.49527 10.1452 9.49524ZM11.5518 10.1185C11.5519 10.1184 11.5529 10.1196 11.5548 10.1226C11.5527 10.1202 11.5517 10.1187 11.5518 10.1185ZM10.2535 9.3119C10.2539 9.31121 10.2541 9.31089 10.2541 9.3109L10.2535 9.3119Z" fill="white" stroke="white"/>
</svg>
