<svg width="290" height="64" viewBox="0 0 290 64" fill="none" xmlns="http://www.w3.org/2000/svg">
<path d="M1 40.18V0.819999H3.20907V40.18H1Z" fill="white"/>
<path d="M23.6771 41C21.1173 41 18.8118 40.5718 16.7606 39.7153C14.7268 38.8407 13.035 37.6107 11.685 36.0253C10.3525 34.44 9.45837 32.5631 9.00253 30.3947L11.2116 29.9573C11.8954 32.6542 13.3505 34.7862 15.5771 36.3533C17.8037 37.9204 20.5037 38.704 23.6771 38.704C25.8861 38.704 27.8147 38.3396 29.4627 37.6107C31.1107 36.8818 32.3906 35.8613 33.3023 34.5493C34.214 33.2191 34.6698 31.6702 34.6698 29.9027C34.6698 28.5724 34.4331 27.4609 33.9597 26.568C33.4864 25.6751 32.8815 24.9553 32.1451 24.4087C31.4263 23.8438 30.6724 23.3973 29.8835 23.0693C29.0945 22.7413 28.3932 22.4862 27.7796 22.304L18.3122 19.352C16.9447 18.9329 15.7612 18.4227 14.7619 17.8213C13.7801 17.22 12.9736 16.5367 12.3424 15.7713C11.7113 15.006 11.2379 14.1678 10.9223 13.2567C10.6243 12.3456 10.4752 11.3707 10.4752 10.332C10.4752 8.32756 10.9924 6.55089 12.0268 5.002C13.0788 3.43489 14.534 2.214 16.3924 1.33933C18.2508 0.446444 20.3985 0 22.8355 0C25.3076 0 27.5254 0.473777 29.489 1.42133C31.4526 2.36889 33.0568 3.70822 34.3016 5.43933C35.5639 7.15222 36.3529 9.16578 36.6685 11.48L34.4594 11.9173C34.214 10.004 33.5653 8.32755 32.5133 6.888C31.4614 5.43022 30.1026 4.30044 28.4371 3.49867C26.7715 2.69689 24.9043 2.296 22.8355 2.296C20.8544 2.296 19.1099 2.65133 17.6021 3.362C16.1119 4.07266 14.946 5.02933 14.1044 6.232C13.2629 7.43467 12.8421 8.78311 12.8421 10.2773C12.8421 11.8444 13.2453 13.1018 14.0518 14.0493C14.8758 14.9787 15.8752 15.7076 17.0498 16.236C18.2245 16.7462 19.3466 17.1653 20.416 17.4933L28.253 19.9533C28.9192 20.1538 29.7345 20.4544 30.6987 20.8553C31.663 21.238 32.6098 21.7938 33.539 22.5227C34.4857 23.2516 35.2659 24.2173 35.8795 25.42C36.5107 26.6044 36.8263 28.0987 36.8263 29.9027C36.8263 31.5973 36.5195 33.128 35.9058 34.4947C35.2922 35.8613 34.4068 37.0276 33.2497 37.9933C32.0925 38.9591 30.7075 39.6971 29.0945 40.2073C27.4816 40.7358 25.6757 41 23.6771 41Z" fill="white"/>
<path d="M42.6049 40.18V0.819999H44.814V37.884H63.6437V40.18H42.6049Z" fill="white"/>
<path d="M65.4907 40.18L79.2711 0.819999H81.638L95.4183 40.18H93.0515L79.6393 1.85867H81.2172L67.8576 40.18H65.4907ZM70.7504 29.9573V27.7707H90.1061V29.9573H70.7504Z" fill="white"/>
<path d="M100.172 40.18V0.819999H102.381L125.418 36.08V0.819999H127.627V40.18H125.418L102.381 4.86533V40.18H100.172Z" fill="white"/>
<path d="M134.997 40.18V0.819999H146.095C146.55 0.819999 147.278 0.829111 148.277 0.847334C149.277 0.865555 150.232 0.947554 151.144 1.09333C153.932 1.51244 156.237 2.624 158.06 4.428C159.901 6.232 161.269 8.528 162.163 11.316C163.057 14.0858 163.504 17.1471 163.504 20.5C163.504 23.8711 163.057 26.9507 162.163 29.7387C161.269 32.5084 159.901 34.7953 158.06 36.5993C156.237 38.3851 153.932 39.4876 151.144 39.9067C150.25 40.0342 149.285 40.1162 148.251 40.1527C147.234 40.1709 146.515 40.18 146.095 40.18H134.997ZM137.364 37.884H146.095C146.936 37.884 147.778 37.8567 148.619 37.802C149.478 37.7473 150.197 37.6653 150.776 37.556C153.265 37.1187 155.264 36.1256 156.772 34.5767C158.297 33.0096 159.402 31.0233 160.085 28.618C160.787 26.1944 161.137 23.4884 161.137 20.5C161.137 17.5116 160.787 14.8147 160.085 12.4093C159.402 9.98578 158.297 7.99955 156.772 6.45066C155.264 4.88355 153.265 3.88133 150.776 3.444C150.197 3.33467 149.47 3.25267 148.593 3.198C147.716 3.14333 146.884 3.116 146.095 3.116H137.364V37.884Z" fill="white"/>
<path d="M179.838 40.18V0.819999H182.047V19.6253L200.771 0.819999H203.822L185.255 19.6253L205.505 40.18H202.455L182.047 19.6253V40.18H179.838Z" fill="#FC5914"/>
<path d="M209.167 40.18V0.819999H232.309V3.116H211.376V19.352H229.154V21.648H211.376V37.884H232.309V40.18H209.167Z" fill="#FC5914"/>
<path d="M247.487 40.18V23.452L234.917 0.819999H237.441L248.592 20.828L259.69 0.819999H262.214L249.696 23.452V40.18H247.487Z" fill="#FC5914"/>
<path d="M276.851 41C274.291 41 271.986 40.5718 269.935 39.7153C267.901 38.8407 266.209 37.6107 264.859 36.0253C263.527 34.44 262.632 32.5631 262.177 30.3947L264.386 29.9573C265.069 32.6542 266.525 34.7862 268.751 36.3533C270.978 37.9204 273.678 38.704 276.851 38.704C279.06 38.704 280.989 38.3396 282.637 37.6107C284.285 36.8818 285.565 35.8613 286.476 34.5493C287.388 33.2191 287.844 31.6702 287.844 29.9027C287.844 28.5724 287.607 27.4609 287.134 26.568C286.66 25.6751 286.056 24.9553 285.319 24.4087C284.6 23.8438 283.847 23.3973 283.058 23.0693C282.269 22.7413 281.567 22.4862 280.954 22.304L271.486 19.352C270.119 18.9329 268.935 18.4227 267.936 17.8213C266.954 17.22 266.148 16.5367 265.517 15.7713C264.885 15.006 264.412 14.1678 264.096 13.2567C263.798 12.3456 263.649 11.3707 263.649 10.332C263.649 8.32756 264.167 6.55089 265.201 5.002C266.253 3.43489 267.708 2.214 269.566 1.33933C271.425 0.446444 273.573 0 276.01 0C278.482 0 280.699 0.473777 282.663 1.42133C284.627 2.36889 286.231 3.70822 287.476 5.43933C288.738 7.15222 289.527 9.16578 289.843 11.48L287.634 11.9173C287.388 10.004 286.739 8.32755 285.687 6.888C284.635 5.43022 283.277 4.30044 281.611 3.49867C279.946 2.69689 278.078 2.296 276.01 2.296C274.028 2.296 272.284 2.65133 270.776 3.362C269.286 4.07266 268.12 5.02933 267.279 6.232C266.437 7.43467 266.016 8.78311 266.016 10.2773C266.016 11.8444 266.419 13.1018 267.226 14.0493C268.05 14.9787 269.049 15.7076 270.224 16.236C271.399 16.7462 272.521 17.1653 273.59 17.4933L281.427 19.9533C282.093 20.1538 282.909 20.4544 283.873 20.8553C284.837 21.238 285.784 21.7938 286.713 22.5227C287.66 23.2516 288.44 24.2173 289.054 25.42C289.685 26.6044 290 28.0987 290 29.9027C290 31.5973 289.694 33.128 289.08 34.4947C288.466 35.8613 287.581 37.0276 286.424 37.9933C285.267 38.9591 283.882 39.6971 282.269 40.2073C280.656 40.7358 278.85 41 276.851 41Z" fill="#FC5914"/>
<path d="M1.0718 60V49.92H8.6388V60H7.8338V50.704H1.8768V60H1.0718ZM13.9121 60.21C13.2308 60.21 12.6544 60.0327 12.1831 59.678C11.7118 59.3233 11.3524 58.845 11.1051 58.243C10.8578 57.641 10.7341 56.962 10.7341 56.206C10.7341 55.4453 10.8578 54.7663 11.1051 54.169C11.3524 53.567 11.7188 53.0933 12.2041 52.748C12.6894 52.4027 13.2844 52.23 13.9891 52.23C14.6751 52.23 15.2608 52.405 15.7461 52.755C16.2314 53.105 16.6001 53.581 16.8521 54.183C17.1088 54.785 17.2371 55.4593 17.2371 56.206C17.2371 56.962 17.1064 57.6433 16.8451 58.25C16.5884 58.852 16.2128 59.3303 15.7181 59.685C15.2281 60.035 14.6261 60.21 13.9121 60.21ZM10.6011 63.36V52.44H11.3361V58.264H11.4061V63.36H10.6011ZM13.8631 59.44C14.4184 59.44 14.8804 59.2977 15.2491 59.013C15.6224 58.7283 15.9024 58.3433 16.0891 57.858C16.2804 57.368 16.3761 56.8173 16.3761 56.206C16.3761 55.5993 16.2828 55.0557 16.0961 54.575C15.9141 54.0897 15.6364 53.707 15.2631 53.427C14.8944 53.1423 14.4231 53 13.8491 53C13.2938 53 12.8294 53.1377 12.4561 53.413C12.0828 53.6837 11.8028 54.0617 11.6161 54.547C11.4294 55.0323 11.3361 55.5853 11.3361 56.206C11.3361 56.822 11.4271 57.375 11.6091 57.865C11.7958 58.3503 12.0758 58.7353 12.4491 59.02C12.8271 59.3 13.2984 59.44 13.8631 59.44ZM21.8779 60.21C21.1265 60.21 20.4895 60.0397 19.9669 59.699C19.4442 59.3583 19.0452 58.887 18.7699 58.285C18.4945 57.683 18.3569 56.99 18.3569 56.206C18.3569 55.4173 18.4969 54.7243 18.7769 54.127C19.0569 53.525 19.4582 53.0583 19.9809 52.727C20.5082 52.3957 21.1405 52.23 21.8779 52.23C22.6292 52.23 23.2662 52.4003 23.7889 52.741C24.3162 53.077 24.7152 53.5437 24.9859 54.141C25.2612 54.7383 25.3989 55.4267 25.3989 56.206C25.3989 57.004 25.2612 57.704 24.9859 58.306C24.7105 58.9033 24.3092 59.37 23.7819 59.706C23.2545 60.042 22.6199 60.21 21.8779 60.21ZM21.8779 59.426C22.7692 59.426 23.4342 59.1273 23.8729 58.53C24.3162 57.9327 24.5379 57.158 24.5379 56.206C24.5379 55.2353 24.3162 54.4607 23.8729 53.882C23.4295 53.3033 22.7645 53.014 21.8779 53.014C21.2759 53.014 20.7789 53.1517 20.3869 53.427C19.9949 53.6977 19.7009 54.0733 19.5049 54.554C19.3135 55.03 19.2179 55.5807 19.2179 56.206C19.2179 57.1767 19.4419 57.956 19.8899 58.544C20.3425 59.132 21.0052 59.426 21.8779 59.426ZM26.379 61.68V59.265C26.813 59.265 27.1257 59.1273 27.317 58.852C27.513 58.5767 27.6717 58.145 27.793 57.557C27.8723 57.165 27.9377 56.7403 27.989 56.283C28.045 55.8257 28.0917 55.289 28.129 54.673C28.171 54.057 28.213 53.3127 28.255 52.44H33.043V59.265H33.75V61.68H32.966V60H27.17V61.68H26.379ZM27.954 59.265H32.231V53.175H29.032C29.0133 53.5577 28.99 53.966 28.962 54.4C28.934 54.8293 28.9013 55.2587 28.864 55.688C28.8267 56.1173 28.7823 56.521 28.731 56.899C28.6797 57.277 28.619 57.6037 28.549 57.879C28.4743 58.1917 28.395 58.4647 28.311 58.698C28.227 58.9313 28.108 59.1203 27.954 59.265ZM37.3398 60.21C36.7564 60.21 36.2711 60.1073 35.8838 59.902C35.5011 59.6967 35.2141 59.426 35.0228 59.09C34.8314 58.7493 34.7358 58.3807 34.7358 57.984C34.7358 57.5547 34.8244 57.1953 35.0018 56.906C35.1838 56.6167 35.4241 56.3833 35.7228 56.206C36.0261 56.0287 36.3598 55.8957 36.7238 55.807C37.1391 55.7137 37.5871 55.6343 38.0678 55.569C38.5484 55.499 39.0058 55.4383 39.4398 55.387C39.8784 55.3357 40.2354 55.2913 40.5108 55.254L40.2168 55.429C40.2354 54.6123 40.0814 54.0057 39.7548 53.609C39.4328 53.2077 38.8634 53.007 38.0468 53.007C37.4728 53.007 36.9991 53.1377 36.6258 53.399C36.2571 53.6557 35.9981 54.0547 35.8488 54.596L35.0228 54.365C35.1954 53.679 35.5431 53.1517 36.0658 52.783C36.5884 52.4143 37.2581 52.23 38.0748 52.23C38.7701 52.23 39.3534 52.3653 39.8248 52.636C40.3008 52.9067 40.6321 53.287 40.8188 53.777C40.8981 53.9777 40.9518 54.2133 40.9798 54.484C41.0078 54.75 41.0218 55.0183 41.0218 55.289V60H40.2868V58.012L40.5598 58.082C40.3311 58.7633 39.9321 59.2883 39.3628 59.657C38.7934 60.0257 38.1191 60.21 37.3398 60.21ZM37.3818 59.468C37.8951 59.468 38.3454 59.377 38.7328 59.195C39.1201 59.0083 39.4328 58.7493 39.6708 58.418C39.9134 58.082 40.0674 57.6877 40.1328 57.235C40.1794 56.983 40.2051 56.71 40.2098 56.416C40.2144 56.122 40.2168 55.905 40.2168 55.765L40.5668 55.989C40.2634 56.0263 39.8994 56.066 39.4748 56.108C39.0548 56.15 38.6254 56.2013 38.1868 56.262C37.7481 56.3227 37.3514 56.3997 36.9968 56.493C36.7774 56.5537 36.5558 56.6423 36.3318 56.759C36.1124 56.871 35.9281 57.0273 35.7788 57.228C35.6341 57.4287 35.5618 57.683 35.5618 57.991C35.5618 58.2197 35.6178 58.4483 35.7298 58.677C35.8464 58.9057 36.0378 59.0947 36.3038 59.244C36.5698 59.3933 36.9291 59.468 37.3818 59.468ZM41.9994 60L45.3314 56.22L42.1254 52.44H43.0494L46.2064 56.199V52.44H46.9764V56.199L50.1334 52.44H51.0644L47.8584 56.22L51.1904 60H50.2384L46.9764 56.241V60H46.2064V56.241L42.9514 60H41.9994ZM54.2245 60.21C53.6412 60.21 53.1559 60.1073 52.7685 59.902C52.3859 59.6967 52.0989 59.426 51.9075 59.09C51.7162 58.7493 51.6205 58.3807 51.6205 57.984C51.6205 57.5547 51.7092 57.1953 51.8865 56.906C52.0685 56.6167 52.3089 56.3833 52.6075 56.206C52.9109 56.0287 53.2445 55.8957 53.6085 55.807C54.0239 55.7137 54.4719 55.6343 54.9525 55.569C55.4332 55.499 55.8905 55.4383 56.3245 55.387C56.7632 55.3357 57.1202 55.2913 57.3955 55.254L57.1015 55.429C57.1202 54.6123 56.9662 54.0057 56.6395 53.609C56.3175 53.2077 55.7482 53.007 54.9315 53.007C54.3575 53.007 53.8839 53.1377 53.5105 53.399C53.1419 53.6557 52.8829 54.0547 52.7335 54.596L51.9075 54.365C52.0802 53.679 52.4279 53.1517 52.9505 52.783C53.4732 52.4143 54.1429 52.23 54.9595 52.23C55.6549 52.23 56.2382 52.3653 56.7095 52.636C57.1855 52.9067 57.5169 53.287 57.7035 53.777C57.7829 53.9777 57.8365 54.2133 57.8645 54.484C57.8925 54.75 57.9065 55.0183 57.9065 55.289V60H57.1715V58.012L57.4445 58.082C57.2159 58.7633 56.8169 59.2883 56.2475 59.657C55.6782 60.0257 55.0039 60.21 54.2245 60.21ZM54.2665 59.468C54.7799 59.468 55.2302 59.377 55.6175 59.195C56.0049 59.0083 56.3175 58.7493 56.5555 58.418C56.7982 58.082 56.9522 57.6877 57.0175 57.235C57.0642 56.983 57.0899 56.71 57.0945 56.416C57.0992 56.122 57.1015 55.905 57.1015 55.765L57.4515 55.989C57.1482 56.0263 56.7842 56.066 56.3595 56.108C55.9395 56.15 55.5102 56.2013 55.0715 56.262C54.6329 56.3227 54.2362 56.3997 53.8815 56.493C53.6622 56.5537 53.4405 56.6423 53.2165 56.759C52.9972 56.871 52.8129 57.0273 52.6635 57.228C52.5189 57.4287 52.4465 57.683 52.4465 57.991C52.4465 58.2197 52.5025 58.4483 52.6145 58.677C52.7312 58.9057 52.9225 59.0947 53.1885 59.244C53.4545 59.3933 53.8139 59.468 54.2665 59.468ZM62.5269 60V52.44H63.3319V55.828H67.8889V52.44H68.6939V60H67.8889V56.612H63.3319V60H62.5269ZM73.763 60.21C73.0396 60.21 72.4143 60.049 71.887 59.727C71.3596 59.4003 70.9513 58.9407 70.662 58.348C70.3726 57.7507 70.228 57.046 70.228 56.234C70.228 55.408 70.3703 54.6963 70.655 54.099C70.9443 53.497 71.3503 53.035 71.873 52.713C72.4003 52.391 73.0256 52.23 73.749 52.23C74.4816 52.23 75.107 52.398 75.625 52.734C76.1476 53.0653 76.5443 53.546 76.815 54.176C77.0903 54.806 77.221 55.5643 77.207 56.451H76.367V56.171C76.3436 55.135 76.1103 54.3463 75.667 53.805C75.2236 53.2637 74.589 52.993 73.763 52.993C72.909 52.993 72.2486 53.2753 71.782 53.84C71.32 54.4 71.089 55.1933 71.089 56.22C71.089 57.2373 71.32 58.026 71.782 58.586C72.2486 59.146 72.9043 59.426 73.749 59.426C74.3323 59.426 74.841 59.2907 75.275 59.02C75.7136 58.7447 76.0613 58.3527 76.318 57.844L77.046 58.166C76.7426 58.8193 76.304 59.3233 75.73 59.678C75.156 60.0327 74.5003 60.21 73.763 60.21ZM70.781 56.451V55.723H76.752V56.451H70.781ZM78.1954 61.68V59.265C78.6294 59.265 78.9421 59.1273 79.1334 58.852C79.3294 58.5767 79.4881 58.145 79.6094 57.557C79.6887 57.165 79.7541 56.7403 79.8054 56.283C79.8614 55.8257 79.9081 55.289 79.9454 54.673C79.9874 54.057 80.0294 53.3127 80.0714 52.44H84.8594V59.265H85.5664V61.68H84.7824V60H78.9864V61.68H78.1954ZM79.7704 59.265H84.0474V53.175H80.8484C80.8297 53.5577 80.8064 53.966 80.7784 54.4C80.7504 54.8293 80.7177 55.2587 80.6804 55.688C80.6431 56.1173 80.5987 56.521 80.5474 56.899C80.4961 57.277 80.4354 57.6037 80.3654 57.879C80.2907 58.1917 80.2114 58.4647 80.1274 58.698C80.0434 58.9313 79.9244 59.1203 79.7704 59.265ZM86.9722 60V52.44H89.9752C90.1059 52.44 90.2855 52.4493 90.5142 52.468C90.7475 52.482 90.9692 52.517 91.1792 52.573C91.6225 52.685 91.9679 52.9183 92.2152 53.273C92.4672 53.6277 92.5932 54.0407 92.5932 54.512C92.5932 54.764 92.5559 54.9973 92.4812 55.212C92.4112 55.422 92.3039 55.6087 92.1592 55.772C92.0939 55.8513 92.0192 55.9237 91.9352 55.989C91.8512 56.0497 91.7695 56.0987 91.6902 56.136C91.8302 56.164 91.9889 56.2363 92.1662 56.353C92.4369 56.521 92.6375 56.7427 92.7682 57.018C92.8989 57.2933 92.9642 57.6107 92.9642 57.97C92.9642 58.488 92.8382 58.908 92.5862 59.23C92.3389 59.552 92.0169 59.769 91.6202 59.881C91.4289 59.937 91.2259 59.972 91.0112 59.986C90.7965 59.9953 90.6005 60 90.4232 60H86.9722ZM87.7842 59.272H90.4022C90.5002 59.272 90.6285 59.265 90.7872 59.251C90.9459 59.2323 91.0859 59.209 91.2072 59.181C91.5245 59.1063 91.7532 58.9547 91.8932 58.726C92.0379 58.4927 92.1102 58.236 92.1102 57.956C92.1102 57.5873 92.0005 57.2863 91.7812 57.053C91.5619 56.815 91.2632 56.6727 90.8852 56.626C90.7779 56.6073 90.6635 56.598 90.5422 56.598C90.4255 56.5933 90.3159 56.591 90.2132 56.591H87.7842V59.272ZM87.7842 55.856H90.1362C90.2482 55.856 90.3812 55.849 90.5352 55.835C90.6892 55.8163 90.8269 55.786 90.9482 55.744C91.2189 55.6507 91.4195 55.492 91.5502 55.268C91.6809 55.0393 91.7462 54.7943 91.7462 54.533C91.7462 54.239 91.6762 53.9847 91.5362 53.77C91.3962 53.5507 91.1932 53.3943 90.9272 53.301C90.7405 53.2403 90.5445 53.2053 90.3392 53.196C90.1385 53.182 90.0125 53.175 89.9612 53.175H87.7842V55.856ZM100.193 52.44V60H99.4017V53.791L95.0757 60H94.3687V52.44H95.1597V58.621L99.4857 52.44H100.193ZM101.308 60L104.64 56.22L101.434 52.44H102.358L105.515 56.199V52.44H106.285V56.199L109.442 52.44H110.373L107.167 56.22L110.499 60H109.547L106.285 56.241V60H105.515V56.241L102.26 60H101.308ZM117.447 52.44V60H116.656V53.791L112.33 60H111.623V52.44H112.414V58.621L116.74 52.44H117.447ZM119.402 60V52.44H120.158L123.189 58.95L126.213 52.44H126.976V60H126.178V54.239L123.511 60H122.86L120.193 54.239V60H119.402ZM132.032 60.21C131.281 60.21 130.644 60.0397 130.121 59.699C129.599 59.3583 129.2 58.887 128.924 58.285C128.649 57.683 128.511 56.99 128.511 56.206C128.511 55.4173 128.651 54.7243 128.931 54.127C129.211 53.525 129.613 53.0583 130.135 52.727C130.663 52.3957 131.295 52.23 132.032 52.23C132.784 52.23 133.421 52.4003 133.943 52.741C134.471 53.077 134.87 53.5437 135.14 54.141C135.416 54.7383 135.553 55.4267 135.553 56.206C135.553 57.004 135.416 57.704 135.14 58.306C134.865 58.9033 134.464 59.37 133.936 59.706C133.409 60.042 132.774 60.21 132.032 60.21ZM132.032 59.426C132.924 59.426 133.589 59.1273 134.027 58.53C134.471 57.9327 134.692 57.158 134.692 56.206C134.692 55.2353 134.471 54.4607 134.027 53.882C133.584 53.3033 132.919 53.014 132.032 53.014C131.43 53.014 130.933 53.1517 130.541 53.427C130.149 53.6977 129.855 54.0733 129.659 54.554C129.468 55.03 129.372 55.5807 129.372 56.206C129.372 57.1767 129.596 57.956 130.044 58.544C130.497 59.132 131.16 59.426 132.032 59.426ZM140.18 60.21C139.424 60.21 138.787 60.042 138.269 59.706C137.751 59.3653 137.357 58.8963 137.086 58.299C136.82 57.697 136.683 57.004 136.673 56.22C136.683 55.422 136.823 54.7243 137.093 54.127C137.369 53.525 137.765 53.0583 138.283 52.727C138.801 52.3957 139.436 52.23 140.187 52.23C140.92 52.23 141.564 52.4073 142.119 52.762C142.679 53.112 143.067 53.595 143.281 54.211L142.497 54.498C142.306 54.0267 142.005 53.6627 141.594 53.406C141.184 53.1447 140.712 53.014 140.18 53.014C139.583 53.014 139.091 53.1517 138.703 53.427C138.316 53.6977 138.027 54.0733 137.835 54.554C137.644 55.0347 137.544 55.59 137.534 56.22C137.548 57.186 137.775 57.963 138.213 58.551C138.657 59.1343 139.312 59.426 140.18 59.426C140.717 59.426 141.181 59.3023 141.573 59.055C141.97 58.8077 142.273 58.4483 142.483 57.977L143.281 58.25C142.987 58.8893 142.577 59.377 142.049 59.713C141.522 60.0443 140.899 60.21 140.18 60.21ZM146.624 60V53.21H143.887V52.44H150.166V53.21H147.429V60H146.624ZM157.314 52.44V60H156.523V53.791L152.197 60H151.49V52.44H152.281V58.621L156.607 52.44H157.314ZM162.072 60V52.44H162.877V55.828H167.434V52.44H168.239V60H167.434V56.612H162.877V60H162.072ZM172.377 60.21C171.794 60.21 171.308 60.1073 170.921 59.902C170.538 59.6967 170.251 59.426 170.06 59.09C169.869 58.7493 169.773 58.3807 169.773 57.984C169.773 57.5547 169.862 57.1953 170.039 56.906C170.221 56.6167 170.461 56.3833 170.76 56.206C171.063 56.0287 171.397 55.8957 171.761 55.807C172.176 55.7137 172.624 55.6343 173.105 55.569C173.586 55.499 174.043 55.4383 174.477 55.387C174.916 55.3357 175.273 55.2913 175.548 55.254L175.254 55.429C175.273 54.6123 175.119 54.0057 174.792 53.609C174.47 53.2077 173.901 53.007 173.084 53.007C172.51 53.007 172.036 53.1377 171.663 53.399C171.294 53.6557 171.035 54.0547 170.886 54.596L170.06 54.365C170.233 53.679 170.58 53.1517 171.103 52.783C171.626 52.4143 172.295 52.23 173.112 52.23C173.807 52.23 174.391 52.3653 174.862 52.636C175.338 52.9067 175.669 53.287 175.856 53.777C175.935 53.9777 175.989 54.2133 176.017 54.484C176.045 54.75 176.059 55.0183 176.059 55.289V60H175.324V58.012L175.597 58.082C175.368 58.7633 174.969 59.2883 174.4 59.657C173.831 60.0257 173.156 60.21 172.377 60.21ZM172.419 59.468C172.932 59.468 173.383 59.377 173.77 59.195C174.157 59.0083 174.47 58.7493 174.708 58.418C174.951 58.082 175.105 57.6877 175.17 57.235C175.217 56.983 175.242 56.71 175.247 56.416C175.252 56.122 175.254 55.905 175.254 55.765L175.604 55.989C175.301 56.0263 174.937 56.066 174.512 56.108C174.092 56.15 173.663 56.2013 173.224 56.262C172.785 56.3227 172.389 56.3997 172.034 56.493C171.815 56.5537 171.593 56.6423 171.369 56.759C171.15 56.871 170.965 57.0273 170.816 57.228C170.671 57.4287 170.599 57.683 170.599 57.991C170.599 58.2197 170.655 58.4483 170.767 58.677C170.884 58.9057 171.075 59.0947 171.341 59.244C171.607 59.3933 171.966 59.468 172.419 59.468ZM184.704 60.21C183.701 60.21 182.859 59.9883 182.177 59.545C181.496 59.097 180.983 58.4787 180.637 57.69C180.292 56.9013 180.119 55.9913 180.119 54.96C180.119 53.9287 180.292 53.0187 180.637 52.23C180.983 51.4413 181.496 50.8253 182.177 50.382C182.859 49.934 183.701 49.71 184.704 49.71C185.876 49.71 186.825 50.0133 187.553 50.62C188.286 51.2267 188.783 52.0387 189.044 53.056L188.211 53.259C187.997 52.4143 187.595 51.7447 187.007 51.25C186.424 50.7507 185.656 50.501 184.704 50.501C183.878 50.501 183.19 50.69 182.639 51.068C182.093 51.446 181.68 51.971 181.4 52.643C181.125 53.315 180.985 54.0873 180.98 54.96C180.971 55.8327 181.104 56.605 181.379 57.277C181.659 57.9443 182.077 58.4693 182.632 58.852C183.188 59.23 183.878 59.419 184.704 59.419C185.656 59.419 186.424 59.1693 187.007 58.67C187.595 58.1707 187.997 57.501 188.211 56.661L189.044 56.864C188.783 57.8813 188.286 58.6933 187.553 59.3C186.825 59.9067 185.876 60.21 184.704 60.21ZM193.693 60.21C192.969 60.21 192.344 60.049 191.817 59.727C191.289 59.4003 190.881 58.9407 190.592 58.348C190.302 57.7507 190.158 57.046 190.158 56.234C190.158 55.408 190.3 54.6963 190.585 54.099C190.874 53.497 191.28 53.035 191.803 52.713C192.33 52.391 192.955 52.23 193.679 52.23C194.411 52.23 195.037 52.398 195.555 52.734C196.077 53.0653 196.474 53.546 196.745 54.176C197.02 54.806 197.151 55.5643 197.137 56.451H196.297V56.171C196.273 55.135 196.04 54.3463 195.597 53.805C195.153 53.2637 194.519 52.993 193.693 52.993C192.839 52.993 192.178 53.2753 191.712 53.84C191.25 54.4 191.019 55.1933 191.019 56.22C191.019 57.2373 191.25 58.026 191.712 58.586C192.178 59.146 192.834 59.426 193.679 59.426C194.262 59.426 194.771 59.2907 195.205 59.02C195.643 58.7447 195.991 58.3527 196.248 57.844L196.976 58.166C196.672 58.8193 196.234 59.3233 195.66 59.678C195.086 60.0327 194.43 60.21 193.693 60.21ZM190.711 56.451V55.723H196.682V56.451H190.711ZM198.685 60V52.44H201.688C201.819 52.44 201.998 52.4493 202.227 52.468C202.46 52.482 202.682 52.517 202.892 52.573C203.335 52.685 203.681 52.9183 203.928 53.273C204.18 53.6277 204.306 54.0407 204.306 54.512C204.306 54.764 204.269 54.9973 204.194 55.212C204.124 55.422 204.017 55.6087 203.872 55.772C203.807 55.8513 203.732 55.9237 203.648 55.989C203.564 56.0497 203.482 56.0987 203.403 56.136C203.543 56.164 203.702 56.2363 203.879 56.353C204.15 56.521 204.35 56.7427 204.481 57.018C204.612 57.2933 204.677 57.6107 204.677 57.97C204.677 58.488 204.551 58.908 204.299 59.23C204.052 59.552 203.73 59.769 203.333 59.881C203.142 59.937 202.939 59.972 202.724 59.986C202.509 59.9953 202.313 60 202.136 60H198.685ZM199.497 59.272H202.115C202.213 59.272 202.341 59.265 202.5 59.251C202.659 59.2323 202.799 59.209 202.92 59.181C203.237 59.1063 203.466 58.9547 203.606 58.726C203.751 58.4927 203.823 58.236 203.823 57.956C203.823 57.5873 203.713 57.2863 203.494 57.053C203.275 56.815 202.976 56.6727 202.598 56.626C202.491 56.6073 202.376 56.598 202.255 56.598C202.138 56.5933 202.029 56.591 201.926 56.591H199.497V59.272ZM199.497 55.856H201.849C201.961 55.856 202.094 55.849 202.248 55.835C202.402 55.8163 202.54 55.786 202.661 55.744C202.932 55.6507 203.132 55.492 203.263 55.268C203.394 55.0393 203.459 54.7943 203.459 54.533C203.459 54.239 203.389 53.9847 203.249 53.77C203.109 53.5507 202.906 53.3943 202.64 53.301C202.453 53.2403 202.257 53.2053 202.052 53.196C201.851 53.182 201.725 53.175 201.674 53.175H199.497V55.856ZM209.197 60.21C208.473 60.21 207.848 60.049 207.321 59.727C206.793 59.4003 206.385 58.9407 206.096 58.348C205.806 57.7507 205.662 57.046 205.662 56.234C205.662 55.408 205.804 54.6963 206.089 54.099C206.378 53.497 206.784 53.035 207.307 52.713C207.834 52.391 208.459 52.23 209.183 52.23C209.915 52.23 210.541 52.398 211.059 52.734C211.581 53.0653 211.978 53.546 212.249 54.176C212.524 54.806 212.655 55.5643 212.641 56.451H211.801V56.171C211.777 55.135 211.544 54.3463 211.101 53.805C210.657 53.2637 210.023 52.993 209.197 52.993C208.343 52.993 207.682 53.2753 207.216 53.84C206.754 54.4 206.523 55.1933 206.523 56.22C206.523 57.2373 206.754 58.026 207.216 58.586C207.682 59.146 208.338 59.426 209.183 59.426C209.766 59.426 210.275 59.2907 210.709 59.02C211.147 58.7447 211.495 58.3527 211.752 57.844L212.48 58.166C212.176 58.8193 211.738 59.3233 211.164 59.678C210.59 60.0327 209.934 60.21 209.197 60.21ZM206.215 56.451V55.723H212.186V56.451H206.215ZM217.5 60.21C216.819 60.21 216.242 60.0327 215.771 59.678C215.3 59.3233 214.94 58.845 214.693 58.243C214.446 57.641 214.322 56.962 214.322 56.206C214.322 55.4453 214.446 54.7663 214.693 54.169C214.94 53.567 215.307 53.0933 215.792 52.748C216.277 52.4027 216.872 52.23 217.577 52.23C218.263 52.23 218.849 52.405 219.334 52.755C219.819 53.105 220.188 53.581 220.44 54.183C220.697 54.785 220.825 55.4593 220.825 56.206C220.825 56.962 220.694 57.6433 220.433 58.25C220.176 58.852 219.801 59.3303 219.306 59.685C218.816 60.035 218.214 60.21 217.5 60.21ZM214.189 63.36V52.44H214.924V58.264H214.994V63.36H214.189ZM217.451 59.44C218.006 59.44 218.468 59.2977 218.837 59.013C219.21 58.7283 219.49 58.3433 219.677 57.858C219.868 57.368 219.964 56.8173 219.964 56.206C219.964 55.5993 219.871 55.0557 219.684 54.575C219.502 54.0897 219.224 53.707 218.851 53.427C218.482 53.1423 218.011 53 217.437 53C216.882 53 216.417 53.1377 216.044 53.413C215.671 53.6837 215.391 54.0617 215.204 54.547C215.017 55.0323 214.924 55.5853 214.924 56.206C214.924 56.822 215.015 57.375 215.197 57.865C215.384 58.3503 215.664 58.7353 216.037 59.02C216.415 59.3 216.886 59.44 217.451 59.44ZM222.365 60V52.44H223.17V55.828H227.727V52.44H228.532V60H227.727V56.612H223.17V60H222.365ZM233.587 60.21C232.836 60.21 232.199 60.0397 231.676 59.699C231.153 59.3583 230.754 58.887 230.479 58.285C230.204 57.683 230.066 56.99 230.066 56.206C230.066 55.4173 230.206 54.7243 230.486 54.127C230.766 53.525 231.167 53.0583 231.69 52.727C232.217 52.3957 232.85 52.23 233.587 52.23C234.338 52.23 234.975 52.4003 235.498 52.741C236.025 53.077 236.424 53.5437 236.695 54.141C236.97 54.7383 237.108 55.4267 237.108 56.206C237.108 57.004 236.97 57.704 236.695 58.306C236.42 58.9033 236.018 59.37 235.491 59.706C234.964 60.042 234.329 60.21 233.587 60.21ZM233.587 59.426C234.478 59.426 235.143 59.1273 235.582 58.53C236.025 57.9327 236.247 57.158 236.247 56.206C236.247 55.2353 236.025 54.4607 235.582 53.882C235.139 53.3033 234.474 53.014 233.587 53.014C232.985 53.014 232.488 53.1517 232.096 53.427C231.704 53.6977 231.41 54.0733 231.214 54.554C231.023 55.03 230.927 55.5807 230.927 56.206C230.927 57.1767 231.151 57.956 231.599 58.544C232.052 59.132 232.714 59.426 233.587 59.426ZM238.648 60V52.44H239.404L242.435 58.95L245.459 52.44H246.222V60H245.424V54.239L242.757 60H242.106L239.439 54.239V60H238.648ZM250.98 60V49.92H251.785V54.708L256.58 49.92H257.644L252.821 54.764L258.064 60H256.986L251.785 54.848V60H250.98ZM264.87 52.44V60H264.079V53.791L259.753 60H259.046V52.44H259.837V58.621L264.163 52.44H264.87ZM266.826 60V52.44H272.65V60H271.845V53.224H267.631V60H266.826ZM277.916 60.21C277.235 60.21 276.658 60.0327 276.187 59.678C275.716 59.3233 275.356 58.845 275.109 58.243C274.862 57.641 274.738 56.962 274.738 56.206C274.738 55.4453 274.862 54.7663 275.109 54.169C275.356 53.567 275.723 53.0933 276.208 52.748C276.693 52.4027 277.288 52.23 277.993 52.23C278.679 52.23 279.265 52.405 279.75 52.755C280.235 53.105 280.604 53.581 280.856 54.183C281.113 54.785 281.241 55.4593 281.241 56.206C281.241 56.962 281.11 57.6433 280.849 58.25C280.592 58.852 280.217 59.3303 279.722 59.685C279.232 60.035 278.63 60.21 277.916 60.21ZM274.605 63.36V52.44H275.34V58.264H275.41V63.36H274.605ZM277.867 59.44C278.422 59.44 278.884 59.2977 279.253 59.013C279.626 58.7283 279.906 58.3433 280.093 57.858C280.284 57.368 280.38 56.8173 280.38 56.206C280.38 55.5993 280.287 55.0557 280.1 54.575C279.918 54.0897 279.64 53.707 279.267 53.427C278.898 53.1423 278.427 53 277.853 53C277.298 53 276.833 53.1377 276.46 53.413C276.087 53.6837 275.807 54.0617 275.62 54.547C275.433 55.0323 275.34 55.5853 275.34 56.206C275.34 56.822 275.431 57.375 275.613 57.865C275.8 58.3503 276.08 58.7353 276.453 59.02C276.831 59.3 277.302 59.44 277.867 59.44ZM285.896 60.21C285.172 60.21 284.547 60.049 284.02 59.727C283.492 59.4003 283.084 58.9407 282.795 58.348C282.505 57.7507 282.361 57.046 282.361 56.234C282.361 55.408 282.503 54.6963 282.788 54.099C283.077 53.497 283.483 53.035 284.006 52.713C284.533 52.391 285.158 52.23 285.882 52.23C286.614 52.23 287.24 52.398 287.758 52.734C288.28 53.0653 288.677 53.546 288.948 54.176C289.223 54.806 289.354 55.5643 289.34 56.451H288.5V56.171C288.476 55.135 288.243 54.3463 287.8 53.805C287.356 53.2637 286.722 52.993 285.896 52.993C285.042 52.993 284.381 53.2753 283.915 53.84C283.453 54.4 283.222 55.1933 283.222 56.22C283.222 57.2373 283.453 58.026 283.915 58.586C284.381 59.146 285.037 59.426 285.882 59.426C286.465 59.426 286.974 59.2907 287.408 59.02C287.846 58.7447 288.194 58.3527 288.451 57.844L289.179 58.166C288.875 58.8193 288.437 59.3233 287.863 59.678C287.289 60.0327 286.633 60.21 285.896 60.21ZM282.914 56.451V55.723H288.885V56.451H282.914Z" fill="#586973"/>
</svg>
